<svg xmlns="http://www.w3.org/2000/svg" viewBox="0 0 270 270" width="24" height="24" preserveAspectRatio="xMidYMid meet"><defs><clipPath id="__lottie_element_47"><rect width="270" height="270" x="0" y="0"></rect></clipPath><clipPath id="__lottie_element_49"><path d="M0,0 L120,0 L120,120 L0,120z"></path></clipPath><clipPath id="__lottie_element_63"><path d="M0,0 L128,0 L128,128 L0,128z"></path></clipPath></defs><g clip-path="url(#__lottie_element_47)"><g clip-path="url(#__lottie_element_63)" style="display: none;"><g style="display: none;"><g><path stroke-linecap="round" stroke-linejoin="miter" fill-opacity="0" stroke-miterlimit="4"></path></g></g><g style="display: none;"><g><path stroke-linecap="round" stroke-linejoin="miter" fill-opacity="0" stroke-miterlimit="4"></path></g></g><g style="display: none;"><g><path></path></g><g><path></path></g><g><path></path></g><g><path></path></g><g><path></path></g><g><path></path></g></g><g style="display: none;"><g><path stroke-linecap="round" stroke-linejoin="miter" fill-opacity="0" stroke-miterlimit="4"></path></g></g><g style="display: none;"><g><path stroke-linecap="round" stroke-linejoin="miter" fill-opacity="0" stroke-miterlimit="4"></path></g></g><g style="display: none;"><g><path></path></g><g><path></path></g><g><path></path></g><g><path></path></g><g><path></path></g><g><path></path></g></g><g style="display: none;"><g><path stroke-linecap="round" stroke-linejoin="miter" fill-opacity="0" stroke-miterlimit="4"></path></g></g><g style="display: none;"><g><path stroke-linecap="round" stroke-linejoin="miter" fill-opacity="0" stroke-miterlimit="4"></path></g></g><g style="display: none;"><g><path></path></g><g><path></path></g><g><path></path></g><g><path></path></g><g><path></path></g><g><path></path></g><g><path></path></g><g><path></path></g><g><path></path></g></g><g style="display: none;"><g><path stroke-linecap="round" stroke-linejoin="miter" fill-opacity="0" stroke-miterlimit="4"></path></g></g></g><g clip-path="url(#__lottie_element_49)" transform="matrix(1.0880000591278076,0,0,1.0880000591278076,69.95299530029297,67.9433822631836)" opacity="1" style="display: block;"><g style="display: none;"><path></path><path stroke-linecap="butt" stroke-linejoin="miter" fill-opacity="0" stroke-miterlimit="4"></path></g><g transform="matrix(1,0,0,1,60,60)" opacity="1" style="display: block;"><path stroke-linecap="butt" stroke-linejoin="miter" fill-opacity="0" stroke-miterlimit="4" stroke="rgb(0,0,0)" stroke-opacity="1" stroke-width="4" d=" M25.025999069213867,-4.00600004196167 C25.025999069213867,-4.00600004196167 5.992000102996826,-3.996999979019165 5.992000102996826,-3.996999979019165 C5.992000102996826,-3.996999979019165 11.012999534606934,-22.983999252319336 11.012999534606934,-22.983999252319336 C12.230999946594238,-26.90399932861328 13,-31.94300079345703 8.994000434875488,-31.981000900268555 C7,-32 5,-32 4.021999835968018,-31.007999420166016 C4.021999835968018,-31.007999420166016 -19.993000030517578,-5.03000020980835 -19.993000030517578,-5.03000020980835 C-19.993000030517578,-5.03000020980835 -20.027999877929688,32.025001525878906 -20.027999877929688,32.025001525878906 C-20.027999877929688,32.025001525878906 20.97599983215332,31.986000061035156 20.97599983215332,31.986000061035156 C25.010000228881836,31.986000061035156 26.198999404907227,29.562000274658203 26.99799919128418,25.985000610351562 C26.99799919128418,25.985000610351562 31.972000122070312,4.026000022888184 31.972000122070312,4.026000022888184 C33,-0.6930000185966492 30.392000198364258,-4.00600004196167 25.025999069213867,-4.00600004196167z"></path></g><g style="display: none;"><path></path><path stroke-linecap="butt" stroke-linejoin="miter" fill-opacity="0" stroke-miterlimit="4"></path></g><g transform="matrix(1,0,0,1,60,60)" opacity="1" style="display: block;"><path stroke-linecap="butt" stroke-linejoin="miter" fill-opacity="0" stroke-miterlimit="4" stroke="rgb(0,0,0)" stroke-opacity="1" stroke-width="4" d=" M-19.986000061035156,-4.03000020980835 C-19.986000061035156,-4.03000020980835 -36.020999908447266,-3.996999979019165 -36.020999908447266,-3.996999979019165 C-36.020999908447266,-3.996999979019165 -36.00199890136719,31.993000030517578 -36.00199890136719,31.993000030517578 C-36.00199890136719,31.993000030517578 -20.030000686645508,32.02299880981445 -20.030000686645508,32.02299880981445 C-20.030000686645508,32.02299880981445 -19.986000061035156,-4.03000020980835 -19.986000061035156,-4.03000020980835z"></path></g></g></g></svg>